# File created by Blade
# Date/Time:  Wed Jan 21 14:43:55 2015
# Frame Rate: 120.000 fps
#------------------------------------------------------
:FULLY-SPECIFIED
:DEGREES
1195
root 26.074217 34.933672 -19.652555 -167.441225 2.377281 191.158725
Spine -14.507443 2.437542 -34.336759
Head 27.049748 0.647854 -30.650767
LeftShoulder -14.747238 -51.431378 37.050255
LeftArm 47.924198 -30.352363 -9.749614
LeftForeArm -72.364356 -0.000000 80.931070
LeftHand 1.578955 -0.000000 -18.304798
LeftHandThumb1 -26.253704 0.000000 33.147579
RightShoulder -9.940491 24.898914 -59.673718
RightArm 119.100370 62.942098 74.195121
RightForeArm 41.797634 -0.000000 98.796669
RightHand 12.342097 -0.000000 5.294769
RightHandThumb1 -24.326973 -0.000000 -32.862282
LeftUpLeg -3.939924 22.341062 21.800821
LeftLeg -8.124865 -0.000000 0.000000
LeftFoot -14.749911 24.996187 -16.836818
LeftToeBase 31.033628 -0.000000 -0.000000
RightUpLeg -5.994049 1.336413 18.630605
RightLeg -3.505806 -0.000000 0.000000
RightFoot -18.372609 -22.339093 11.785911
RightToeBase 23.074091 -0.000000 -0.000000
1196
root 26.072356 34.933295 -19.651214 -167.483033 2.315405 191.157404
Spine -14.488082 2.434898 -34.252570
Head 27.095193 0.571545 -30.654965
LeftShoulder -14.636679 -51.403491 36.898224
LeftArm 48.124973 -30.306003 -9.904055
LeftForeArm -72.385750 -0.000000 80.855702
LeftHand 1.684432 -0.000000 -18.382555
LeftHandThumb1 -26.253704 0.000000 33.147579
RightShoulder -9.908324 24.865267 -59.613658
RightArm 119.008681 62.930952 74.077348
RightForeArm 41.790061 -0.000000 98.752604
RightHand 12.391241 -0.000000 5.448378
RightHandThumb1 -24.326973 -0.000000 -32.862282
LeftUpLeg -3.934917 22.305385 21.806383
LeftLeg -8.125885 -0.000000 0.000000
LeftFoot -14.752931 25.000160 -16.764366
LeftToeBase 31.147245 -0.000000 -0.000000
RightUpLeg -5.970232 1.296265 18.633014
RightLeg -3.502460 -0.000000 0.000000
RightFoot -18.371301 -22.352372 11.781970
RightToeBase 23.076878 -0.000000 -0.000000
1197
root 26.070509 34.932861 -19.648860 -167.503598 2.266808 191.139160
Spine -14.503542 2.446696 -34.193343
Head 27.165588 0.527703 -30.627702
LeftShoulder -14.483325 -51.378520 36.738695
LeftArm 48.326870 -30.288111 -10.080562
LeftForeArm -72.430366 -0.000000 80.803516
LeftHand 1.661163 0.000000 -18.315211
LeftHandThumb1 -26.253704 0.000000 33.147579
RightShoulder -9.833504 24.806897 -59.587592
RightArm 118.871997 62.981482 73.958047
RightForeArm 41.826015 -0.000000 98.773108
RightHand 12.215940 -0.000000 5.198219
RightHandThumb1 -24.326973 -0.000000 -32.862282
LeftUpLeg -3.947004 22.299755 21.779595
LeftLeg -8.140184 -0.000000 0.000000
LeftFoot -14.715356 24.961784 -16.784809
LeftToeBase 31.070893 -0.000000 -0.000000
RightUpLeg -5.962564 1.260522 18.620187
RightLeg -3.510209 -0.000000 0.000000
RightFoot -18.382634 -22.373423 11.771616
RightToeBase 23.072702 -0.000000 -0.000000
1198
root 26.067765 34.932509 -19.647041 -167.545667 2.200601 191.135601
Spine -14.463687 2.443754 -34.105293
Head 27.179085 0.508624 -30.519550
LeftShoulder -14.422819 -51.407415 36.679640
LeftArm 48.484041 -30.206967 -10.232426
LeftForeArm -72.257825 -0.000000 80.764579
LeftHand 1.755287 -0.000000 -18.270904
LeftHandThumb1 -26.253704 0.000000 33.147579
RightShoulder -9.777740 24.719687 -59.503218
RightArm 118.948146 63.073464 73.992804
RightForeArm 41.835714 -0.000000 98.727523
RightHand 12.321951 0.000000 5.386912
RightHandThumb1 -24.326973 -0.000000 -32.862282
LeftUpLeg -3.953457 22.284199 21.777572
LeftLeg -8.130402 -0.000000 0.000000
LeftFoot -14.709527 24.941127 -16.681087
LeftToeBase 31.181331 -0.000000 -0.000000
RightUpLeg -5.930207 1.196716 18.623679
RightLeg -3.526278 -0.000000 0.000000
RightFoot -18.368980 -22.374587 11.764601
RightToeBase 23.026875 -0.000000 -0.000000
1199
root 26.064366 34.932344 -19.643983 -167.568189 2.153677 191.115972
Spine -14.488782 2.427563 -34.036282
Head 27.244136 0.463018 -30.493351
LeftShoulder -14.298264 -51.412353 36.556714
LeftArm 48.745729 -30.153169 -10.426057
LeftForeArm -72.372539 -0.000000 80.625176
LeftHand 1.609174 -0.000000 -18.267810
LeftHandThumb1 -26.253704 0.000000 33.147579
RightShoulder -9.671822 24.631840 -59.383330
RightArm 118.951621 63.108534 73.981015
RightForeArm 41.943582 -0.000000 98.728932
RightHand 12.291377 -0.000000 5.339587
RightHandThumb1 -24.326973 -0.000000 -32.862282
LeftUpLeg -3.978108 22.280418 21.748080
LeftLeg -8.116598 -0.000000 0.000000
LeftFoot -14.684255 24.893184 -16.708230
LeftToeBase 31.017924 -0.000000 -0.000000
RightUpLeg -5.916419 1.157543 18.606979
RightLeg -3.540688 -0.000000 0.000000
RightFoot -18.378665 -22.393457 11.727909
RightToeBase 23.032983 -0.000000 -0.000000
1200
root 26.060250 34.932474 -19.640379 -167.586690 2.092526 191.092733
Spine -14.470529 2.408595 -33.955809
Head 27.228616 0.418257 -30.427794
LeftShoulder -14.244059 -51.528961 36.549030
LeftArm 48.829774 -29.980016 -10.501895
LeftForeArm -72.190047 -0.000000 80.606449
LeftHand 1.751397 -0.000000 -18.211868
LeftHandThumb1 -26.253704 0.000000 33.147579
RightShoulder -9.626502 24.679034 -59.375913
RightArm 118.721885 63.191246 73.831694
RightForeArm 41.895736 0.000000 98.736296
RightHand 12.307803 -0.000000 5.347097
RightHandThumb1 -24.326973 -0.000000 -32.862282
LeftUpLeg -4.019342 22.270671 21.711639
LeftLeg -8.091781 -0.000000 0.000000
LeftFoot -14.668841 24.854334 -16.672806
LeftToeBase 31.021557 -0.000000 -0.000000
RightUpLeg -5.913654 1.085862 18.592405
RightLeg -3.550038 -0.000000 0.000000
RightFoot -18.370567 -22.392685 11.689629
RightToeBase 23.059946 -0.000000 -0.000000
